<svg width="796" height="1252" viewBox="0 0 796 1252" fill="none" xmlns="http://www.w3.org/2000/svg">
<path d="M4.6755 556C-29.1578 605.833 180.549 769.131 225.676 696.5C278.176 612 423.675 735.5 520.675 696.5" stroke="#8B949E" stroke-width="2" stroke-dasharray="8 8"/>
<path d="M87 1C87 1 157.752 67.4754 223.495 78.3623C300.049 91.0395 406 25.9556 406 25.9556" stroke="#8B949E" stroke-width="2" stroke-dasharray="8 8"/>
<path d="M632 216C627.333 249.167 568.5 356.5 451 315.5C333.5 274.5 172.5 403.5 178.5 415.5" stroke="#8B949E" stroke-width="2" stroke-dasharray="8 8"/>
<path d="M679 748.5C679 748.5 603.785 916.157 639.8 923.698C908.661 980.002 756.375 1015.21 710.097 1013.97" stroke="#8B949E" stroke-width="2" stroke-dasharray="8 8"/>
<path d="M486 1131.5C486 1131.5 166.299 1116.82 188.154 1185.5C206.103 1241.9 295.158 1270.97 347.795 1235.5C430.154 1180 68 1044 68 1044" stroke="#8B949E" stroke-width="2" stroke-dasharray="8 8"/>
</svg>
